<svg xmlns="http://www.w3.org/2000/svg" viewBox="0 0 32 40" x="0px" y="0px"><g><path d="M31,11.1001a6.28561,6.28561,0,0,1-1.85449,4.47607l-6.78418,6.78467A6.33065,6.33065,0,1,1,13.4082,13.4082l.75391-.7539a.99989.99989,0,1,1,1.41406,1.41406l-.7539.75391a4.33086,4.33086,0,0,0,6.125,6.12451l6.78418-6.78467a4.33051,4.33051,0,0,0-6.124-6.12451.99989.99989,0,0,1-1.41406-1.41406A6.33057,6.33057,0,0,1,31,11.1001ZM10.39258,23.9624a4.33051,4.33051,0,1,1-6.124-6.12451l6.78418-6.78467a4.33086,4.33086,0,1,1,6.125,6.12451l-.7539.75391a.99989.99989,0,1,0,1.41406,1.41406l.75391-.7539A6.33065,6.33065,0,0,0,9.63867,9.63916L2.85449,16.42383a6.3303,6.3303,0,1,0,8.95215,8.95263.99989.99989,0,1,0-1.41406-1.41406Z"/></g></svg>